<?xml version="1.0" encoding="UTF-8"?>
<svg id="Camada_1" xmlns="http://www.w3.org/2000/svg" version="1.1" viewBox="0 0 836.42 887.31">
  <!-- Generator: Adobe Illustrator 30.0.0, SVG Export Plug-In . SVG Version: 2.1.1 Build 123)  -->
  <defs>
    <style>
      .st0, .st1, .st2 {
        fill: #fff;
      }

      .st1, .st2 {
        stroke: #fff;
        stroke-miterlimit: 10;
      }

      .st2 {
        stroke-width: 5px;
      }
    </style>
  </defs>
  <g>
    <g>
      <polygon class="st0" points="539.41 379.78 539.41 379.94 537.16 383.35 539.41 379.78"/>
      <polygon class="st0" points="537.58 383.63 536.74 383.09 539.91 378.05 539.91 380.09 537.58 383.63"/>
    </g>
    <g>
      <path class="st0" d="M560.59,285.18v9.76c0,24.58-3.66,46.19-10.93,64.66-2.85,7.27-6.27,14.06-10.25,20.34v-.16l-2.25,3.57c-2.49,3.65-5.19,7.13-8.09,10.42-16.13,18.31-39.16,29.79-68.67,34.29l.09,75.58c.03,27.47-21.58,49.9-48.73,51.19h-43.47V176.75h63.16c21.8,0,41.09,2.93,57.33,8.69,16.9,6,30.96,15.2,41.81,27.35,1.74,1.96,3.41,3.98,5,6.07,13.37,17.47,21.74,39.68,25,66.32Z"/>
      <path class="st0" d="M368.29,555.33h-.5V176.25h63.66c21.84,0,41.19,2.93,57.5,8.72,16.97,6.03,31.11,15.27,42.02,27.49,1.78,2.01,3.47,4.06,5.03,6.1,13.39,17.5,21.83,39.89,25.1,66.56v.06s0,9.76,0,9.76c0,24.54-3.69,46.36-10.97,64.84-2.85,7.28-6.32,14.15-10.29,20.42l-.92,1.46v-.15l-1.33,2.11c-2.51,3.68-5.24,7.2-8.14,10.48-16.09,18.26-39.15,29.83-68.54,34.39l.09,75.15c.03,27.67-21.58,50.38-49.21,51.69h-43.49ZM368.79,554.33h42.97c27.06-1.29,48.26-23.55,48.23-50.69l-.09-76.01.43-.06c29.36-4.48,52.37-15.96,68.37-34.13,2.87-3.25,5.58-6.74,8.05-10.37l3.16-5.02v.14c3.56-5.82,6.68-12.12,9.28-18.77,7.23-18.37,10.9-40.06,10.9-64.48v-9.73c-3.24-26.48-11.62-48.7-24.9-66.05-1.54-2.02-3.21-4.05-4.98-6.04-10.79-12.09-24.79-21.24-41.6-27.21-16.2-5.75-35.44-8.66-57.16-8.66h-62.66v377.08Z"/>
    </g>
    <g>
      <path class="st0" d="M411.66,554.83c-.81.04-1.62.06-2.43.06l-40.94-.06h43.37Z"/>
      <path class="st0" d="M409.23,555.39l-40.94-.06v-1h43.37l.02,1c-.82.04-1.64.06-2.46.06Z"/>
    </g>
    <g>
      <path class="st0" d="M603.27,143.07c-17.53-17.06-38.65-30.42-63.21-40.03-15.24-5.97-31.82-10.49-49.68-13.56-18.74-3.22-38.91-4.83-60.46-4.83h-233.56v114.03h70.62v334.22h-70.62v114.04h233.56c75.19,0,133.51-19.66,173.35-58.42,39.95-38.85,60.21-96.74,60.21-172.07v-101.32c0-75.31-20.26-133.2-60.21-172.06ZM560.59,294.94c0,24.58-3.66,46.19-10.93,64.66-2.85,7.27-6.27,14.06-10.25,20.34-.72,1.15-1.47,2.29-2.25,3.41-2.49,3.65-5.19,7.13-8.09,10.42-16.13,18.31-39.16,29.79-68.67,34.29l.09,75.58c.03,27.47-21.58,49.9-48.73,51.19h-.1c-.81.04-1.62.06-2.43.06l-40.94-.06V176.75h63.16c21.8,0,41.09,2.93,57.33,8.69,16.9,6,30.96,15.2,41.81,27.35,1.74,1.96,3.41,3.98,5,6.07,13.37,17.47,21.74,39.68,25,66.32v9.76Z"/>
      <path class="st0" d="M429.92,647.44h-234.06v-115.04h70.62V199.18h-70.62v-115.03h234.06c21.49,0,41.86,1.63,60.54,4.84,17.85,3.07,34.59,7.64,49.78,13.59,24.56,9.61,45.89,23.12,63.38,40.14h0c40.05,38.96,60.36,96.97,60.36,172.42v101.32c0,75.46-20.31,133.48-60.36,172.43-39.94,38.86-98.38,58.56-173.7,58.56ZM196.86,646.44h233.06c75.05,0,133.25-19.61,173-58.28,39.85-38.75,60.06-96.53,60.06-171.71v-101.32c0-75.17-20.21-132.94-60.06-171.7h0c-17.39-16.93-38.61-30.36-63.04-39.92-15.12-5.92-31.8-10.48-49.58-13.53-18.62-3.2-38.94-4.82-60.38-4.82h-233.06v113.03h70.62v335.22h-70.62v113.04ZM409.23,555.39l-41.44-.06V176.25h63.66c21.84,0,41.19,2.93,57.5,8.72,16.97,6.03,31.11,15.27,42.02,27.49,1.78,2.01,3.47,4.06,5.02,6.1,13.39,17.5,21.83,39.89,25.1,66.56v9.82c0,24.54-3.69,46.36-10.96,64.84-2.85,7.28-6.32,14.15-10.29,20.42-.74,1.19-1.5,2.34-2.26,3.43-2.5,3.66-5.23,7.18-8.12,10.46-16.09,18.26-39.15,29.83-68.54,34.39l.09,75.15c.03,27.67-21.58,50.38-49.21,51.69h-.12c-.79.04-1.61.06-2.43.06ZM368.79,554.33l40.44.06c.8,0,1.6-.02,2.4-.06h.12c27.06-1.29,48.26-23.55,48.23-50.69l-.09-76.01.43-.06c29.36-4.48,52.37-15.96,68.37-34.13,2.87-3.25,5.58-6.74,8.05-10.37.75-1.08,1.5-2.22,2.24-3.39,3.94-6.22,7.38-13.04,10.21-20.26,7.23-18.37,10.9-40.06,10.9-64.48v-9.76c-3.24-26.43-11.62-48.66-24.9-66.02-1.54-2.02-3.21-4.05-4.98-6.04-10.79-12.09-24.79-21.24-41.6-27.21-16.2-5.75-35.44-8.66-57.16-8.66h-62.66v377.08Z"/>
    </g>
  </g>
  <g>
    <path class="st0" d="M539.41,379.94c-.72,1.15-1.47,2.29-2.25,3.41l2.25-3.41Z"/>
    <path class="st0" d="M537.57,383.64l-.83-.56,2.25-3.41.84.54c-.75,1.19-1.51,2.34-2.26,3.43Z"/>
  </g>
  <g>
    <path class="st2" d="M93.72,805.43v-14.22h11.28v-57.38h-11.28v-14.22h35.31c11.52,0,20.29,2.92,26.3,8.77,6.01,5.84,9.01,14.53,9.01,26.05v16.18c0,11.52-3,20.21-9.01,26.05-6.01,5.84-14.77,8.77-26.3,8.77h-35.31ZM121.18,790.72h8.09c6.54,0,11.32-1.72,14.34-5.15,3.02-3.43,4.54-8.25,4.54-14.47v-17.16c0-6.29-1.51-11.13-4.54-14.53-3.02-3.39-7.81-5.09-14.34-5.09h-8.09v56.4Z"/>
    <path class="st2" d="M173.9,805.43v-85.82h16.18v85.82h-16.18Z"/>
    <path class="st2" d="M232.13,807.15c-6.62,0-12.46-1.19-17.53-3.56-5.07-2.37-9.03-5.76-11.89-10.18-2.86-4.41-4.29-9.73-4.29-15.94v-3.43h15.94v3.43c0,5.15,1.59,9.01,4.78,11.59,3.19,2.58,7.52,3.86,13,3.86s9.7-1.1,12.44-3.31c2.74-2.21,4.11-5.03,4.11-8.46,0-2.37-.67-4.29-2.02-5.76-1.35-1.47-3.31-2.68-5.88-3.62-2.57-.94-5.7-1.82-9.38-2.64l-2.82-.61c-5.88-1.31-10.93-2.96-15.14-4.97-4.21-2-7.44-4.64-9.69-7.91-2.25-3.27-3.37-7.52-3.37-12.75s1.25-9.71,3.74-13.42c2.49-3.72,6.01-6.58,10.54-8.58,4.54-2,9.87-3,16-3s11.59,1.04,16.37,3.13c4.78,2.08,8.54,5.19,11.28,9.32,2.74,4.13,4.11,9.3,4.11,15.51v3.68h-15.94v-3.68c0-3.27-.63-5.9-1.9-7.91-1.27-2-3.09-3.47-5.46-4.41-2.37-.94-5.19-1.41-8.46-1.41-4.9,0-8.52.92-10.85,2.76-2.33,1.84-3.49,4.35-3.49,7.54,0,2.13.55,3.92,1.66,5.39,1.1,1.47,2.76,2.7,4.97,3.68,2.21.98,5.03,1.84,8.46,2.57l2.82.61c6.13,1.31,11.46,2.98,16,5.03,4.54,2.04,8.07,4.74,10.6,8.09,2.53,3.35,3.8,7.64,3.8,12.87s-1.33,9.83-3.98,13.79c-2.66,3.96-6.42,7.07-11.28,9.32-4.86,2.25-10.6,3.37-17.23,3.37Z"/>
    <path class="st2" d="M289.88,805.43v-71.11h-25.01v-14.71h66.2v14.71h-25.01v71.11h-16.18Z"/>
    <path class="st2" d="M338.18,805.43v-85.82h37.27c5.39,0,10.09.94,14.1,2.82,4,1.88,7.11,4.54,9.32,7.97,2.21,3.43,3.31,7.48,3.31,12.14v1.47c0,5.15-1.23,9.32-3.68,12.51-2.45,3.19-5.48,5.52-9.07,6.99v2.21c3.27.17,5.8,1.29,7.6,3.37,1.8,2.08,2.7,4.84,2.7,8.28v28.08h-16.18v-25.75c0-1.96-.51-3.56-1.53-4.78-1.02-1.23-2.72-1.84-5.09-1.84h-22.56v32.37h-16.18ZM354.36,758.35h19.37c3.84,0,6.84-1.04,9.01-3.13,2.16-2.08,3.25-4.84,3.25-8.28v-1.23c0-3.43-1.06-6.19-3.19-8.28-2.13-2.08-5.15-3.13-9.07-3.13h-19.37v24.03Z"/>
    <path class="st2" d="M411.74,805.43v-85.82h16.18v85.82h-16.18Z"/>
    <path class="st2" d="M460.04,805.43v-71.11h-25.01v-14.71h66.2v14.71h-25.01v71.11h-16.18Z"/>
    <path class="st2" d="M538.26,807.15c-10.79,0-19.37-2.96-25.75-8.89-6.38-5.92-9.56-14.41-9.56-25.44v-20.6c0-11.03,3.19-19.51,9.56-25.44,6.38-5.92,14.96-8.89,25.75-8.89s19.37,2.96,25.75,8.89c6.38,5.93,9.56,14.41,9.56,25.44v20.6c0,11.03-3.19,19.51-9.56,25.44-6.38,5.93-14.96,8.89-25.75,8.89ZM538.26,792.68c6.05,0,10.75-1.76,14.1-5.27,3.35-3.51,5.03-8.21,5.03-14.1v-21.58c0-5.88-1.68-10.58-5.03-14.1-3.35-3.51-8.05-5.27-14.1-5.27s-10.65,1.76-14.04,5.27c-3.39,3.52-5.09,8.21-5.09,14.1v21.58c0,5.88,1.7,10.59,5.09,14.1,3.39,3.52,8.07,5.27,14.04,5.27Z"/>
    <path class="st1" d="M586.32,805.43v-85.82h31.75c5.07,0,9.62.96,13.67,2.88,4.05,1.92,7.25,4.68,9.62,8.28,2.37,3.6,3.56,7.97,3.56,13.12v1.47c0,5.15-1.21,9.54-3.62,13.18-2.41,3.64-5.64,6.4-9.69,8.28-4.05,1.88-8.56,2.82-13.55,2.82h-23.91v35.8h-7.85ZM594.16,762.52h23.05c6.13,0,10.97-1.51,14.53-4.54,3.56-3.02,5.33-7.27,5.33-12.75v-1.23c0-5.56-1.74-9.83-5.21-12.81-3.47-2.98-8.36-4.47-14.65-4.47h-23.05v35.8Z"/>
    <path class="st1" d="M641.73,805.43l28.08-85.82h13.98l28.08,85.82h-8.21l-7.36-22.8h-38.99l-7.36,22.8h-8.21ZM659.51,775.51h34.57l-16.55-51.25h-1.47l-16.55,51.25Z"/>
    <path class="st1" d="M734.91,805.43v-33.96l-31.14-51.86h9.32l25.01,42.91h1.47l25.01-42.91h9.32l-31.14,51.86v33.96h-7.85Z"/>
  </g>
</svg>