<?xml version="1.0" encoding="UTF-8"?>
<svg id="Camada_1" xmlns="http://www.w3.org/2000/svg" version="1.1" viewBox="0 0 836.42 887.31">
  <!-- Generator: Adobe Illustrator 30.0.0, SVG Export Plug-In . SVG Version: 2.1.1 Build 123)  -->
  <defs>
    <style>
      .st0 {
        font-size: 122.6px;
      }

      .st1 {
        fill: #fff;
      }

      .st2 {
        font-family: SpaceGrotesk-Bold, 'Space Grotesk';
        font-weight: 700;
        letter-spacing: -.03em;
        stroke: #000;
        stroke-miterlimit: 10;
        stroke-width: 5px;
      }

      .st3 {
        font-family: SpaceGrotesk-Light, 'Space Grotesk';
        font-weight: 300;
        letter-spacing: -.03em;
      }
    </style>
  </defs>
  <g>
    <polygon class="st1" points="539.41 379.78 539.41 379.94 537.16 383.35 539.41 379.78"/>
    <path class="st1" d="M560.59,285.18v9.76c0,24.58-3.66,46.19-10.93,64.66-2.85,7.27-6.27,14.06-10.25,20.34v-.16l-2.25,3.57c-2.49,3.65-5.19,7.13-8.09,10.42-16.13,18.31-39.16,29.79-68.67,34.29l.09,75.58c.03,27.47-21.58,49.9-48.73,51.19h-43.47V176.75h63.16c21.8,0,41.09,2.93,57.33,8.69,16.9,6,30.96,15.2,41.81,27.35,1.74,1.96,3.41,3.98,5,6.07,13.37,17.47,21.74,39.68,25,66.32Z"/>
    <path class="st1" d="M411.66,554.83c-.81.04-1.62.06-2.43.06l-40.94-.06h43.37Z"/>
    <path d="M603.27,143.07c-17.53-17.06-38.65-30.42-63.21-40.03-15.24-5.97-31.82-10.49-49.68-13.56-18.74-3.22-38.91-4.83-60.46-4.83h-233.56v114.03h70.62v334.22h-70.62v114.04h233.56c75.19,0,133.51-19.66,173.35-58.42,39.95-38.85,60.21-96.74,60.21-172.07v-101.32c0-75.31-20.26-133.2-60.21-172.06ZM560.59,294.94c0,24.58-3.66,46.19-10.93,64.66-2.85,7.27-6.27,14.06-10.25,20.34-.72,1.15-1.47,2.29-2.25,3.41-2.49,3.65-5.19,7.13-8.09,10.42-16.13,18.31-39.16,29.79-68.67,34.29l.09,75.58c.03,27.47-21.58,49.9-48.73,51.19h-.1c-.81.04-1.62.06-2.43.06l-40.94-.06V176.75h63.16c21.8,0,41.09,2.93,57.33,8.69,16.9,6,30.96,15.2,41.81,27.35,1.74,1.96,3.41,3.98,5,6.07,13.37,17.47,21.74,39.68,25,66.32v9.76Z"/>
  </g>
  <path d="M539.41,379.94c-.72,1.15-1.47,2.29-2.25,3.41l2.25-3.41Z"/>
  <text class="st0" transform="translate(88.08 805.43)"><tspan class="st2" x="0" y="0">DISTRITO</tspan><tspan class="st3" x="493.82" y="0">PAY</tspan></text>
</svg>